<svg width="80" height="35" viewBox="0 0 80 35" fill="none" xmlns="http://www.w3.org/2000/svg">
<rect width="80" height="35" rx="17.5" fill="#6F9395"/>
<path d="M56.6331 7.29896C54.848 6.79894 53.1155 6.94894 51.5841 7.57898C50.9541 7.83899 50.7878 8.79904 51.3129 9.28907C52.3126 10.2228 53.1179 11.3992 53.6703 12.7328C54.2228 14.0665 54.5085 15.5239 54.5068 16.9995C54.5085 18.475 54.2228 19.9325 53.6703 21.2661C53.1179 22.5998 52.3126 23.7762 51.3129 24.7099C50.7966 25.1999 50.9453 26.16 51.5841 26.41C52.4942 26.79 53.483 27 54.5068 27C59.8008 27 64.001 21.6197 63.1435 15.3994C62.6097 11.4792 60.0021 8.23901 56.6331 7.29896Z" fill="#FAFAFA"/>
<rect x="5" y="3" width="35" height="28" rx="13" fill="#FAFAFA"/>
<path d="M21.4071 26.405V23.9451C21.4071 23.7875 21.4697 23.6364 21.5811 23.525C21.6926 23.4136 21.8437 23.351 22.0013 23.351C22.1588 23.351 22.3099 23.4136 22.4214 23.525C22.5328 23.6364 22.5954 23.7875 22.5954 23.9451V26.405C22.5954 26.5626 22.5328 26.7137 22.4214 26.8251C22.3099 26.9366 22.1588 26.9992 22.0013 26.9992C21.8437 26.9992 21.6926 26.9366 21.5811 26.8251C21.4697 26.7137 21.4071 26.5626 21.4071 26.405ZM28.2318 24.0684L26.4927 22.3302C26.4352 22.2756 26.3892 22.21 26.3575 22.1373C26.3257 22.0646 26.3088 21.9863 26.3078 21.907C26.3068 21.8277 26.3216 21.749 26.3515 21.6756C26.3814 21.6021 26.4257 21.5353 26.4818 21.4793C26.5379 21.4232 26.6046 21.3789 26.6781 21.349C26.7515 21.3191 26.8302 21.3043 26.9095 21.3053C26.9888 21.3063 27.0671 21.3232 27.1398 21.355C27.2125 21.3867 27.2781 21.4327 27.3327 21.4902L29.0701 23.231C29.1675 23.3449 29.2182 23.4915 29.212 23.6412C29.2059 23.791 29.1434 23.9329 29.037 24.0385C28.9307 24.1441 28.7884 24.2056 28.6386 24.2107C28.4888 24.2158 28.3426 24.1641 28.2293 24.0659L28.2318 24.0684ZM14.9307 24.0684C14.8753 24.0134 14.8313 23.948 14.8013 23.8759C14.7712 23.8039 14.7558 23.7265 14.7558 23.6485C14.7558 23.5704 14.7712 23.4931 14.8013 23.421C14.8313 23.3489 14.8753 23.2835 14.9307 23.2285L16.6698 21.4894C16.7244 21.4319 16.79 21.3859 16.8627 21.3541C16.9354 21.3224 17.0137 21.3055 17.093 21.3045C17.1723 21.3034 17.251 21.3183 17.3244 21.3482C17.3979 21.3781 17.4646 21.4224 17.5207 21.4784C17.5768 21.5345 17.6211 21.6013 17.651 21.6747C17.6809 21.7482 17.6957 21.8269 17.6947 21.9062C17.6937 21.9855 17.6768 22.0638 17.645 22.1365C17.6133 22.2092 17.5673 22.2747 17.5098 22.3294L15.7707 24.0676C15.7157 24.123 15.6503 24.167 15.5782 24.1971C15.5061 24.2271 15.4288 24.2425 15.3507 24.2425C15.2726 24.2425 15.1953 24.2271 15.1232 24.1971C15.0511 24.167 14.9857 24.1239 14.9307 24.0684ZM17.2664 16.9979C17.2664 15.7419 17.7654 14.5374 18.6535 13.6493C19.5416 12.7612 20.7461 12.2623 22.0021 12.2623C23.2581 12.2623 24.4626 12.7612 25.3507 13.6493C26.2388 14.5374 26.7377 15.7419 26.7377 16.9979C26.7377 18.2539 26.2388 19.4584 25.3507 20.3465C24.4626 21.2346 23.2581 21.7335 22.0021 21.7335C20.7461 21.7335 19.5416 21.2346 18.6535 20.3465C17.7654 19.4584 17.2664 18.2539 17.2664 16.9979ZM18.4539 16.9979C18.4437 17.4704 18.5279 17.9403 18.7016 18.3798C18.8754 18.8194 19.1352 19.2198 19.4657 19.5576C19.7963 19.8954 20.191 20.1638 20.6267 20.3471C21.0624 20.5303 21.5303 20.6247 22.0029 20.6247C22.4756 20.6247 22.9435 20.5303 23.3791 20.3471C23.8148 20.1638 24.2095 19.8954 24.5401 19.5576C24.8707 19.2198 25.1304 18.8194 25.3042 18.3798C25.4779 17.9403 25.5622 17.4704 25.5519 16.9979C25.5318 16.07 25.1491 15.1868 24.4857 14.5377C23.8223 13.8885 22.9311 13.525 22.0029 13.525C21.0748 13.525 20.1835 13.8885 19.5201 14.5377C18.8568 15.1868 18.474 16.07 18.4539 16.9979ZM28.946 17.5921C28.8679 17.5921 28.7907 17.5767 28.7186 17.5468C28.6465 17.517 28.581 17.4732 28.5258 17.418C28.4707 17.3629 28.4269 17.2974 28.397 17.2253C28.3672 17.1532 28.3518 17.0759 28.3518 16.9979C28.3518 16.9199 28.3672 16.8426 28.397 16.7705C28.4269 16.6985 28.4707 16.633 28.5258 16.5778C28.581 16.5226 28.6465 16.4789 28.7186 16.449C28.7907 16.4191 28.8679 16.4038 28.946 16.4038H31.4059C31.4839 16.4038 31.5611 16.4191 31.6332 16.449C31.7053 16.4789 31.7708 16.5226 31.826 16.5778C31.8812 16.633 31.9249 16.6985 31.9548 16.7705C31.9846 16.8426 32 16.9199 32 16.9979C32 17.0759 31.9846 17.1532 31.9548 17.2253C31.9249 17.2974 31.8812 17.3629 31.826 17.418C31.7708 17.4732 31.7053 17.517 31.6332 17.5468C31.5611 17.5767 31.4839 17.5921 31.4059 17.5921H28.946ZM12.5941 17.5921C12.5161 17.5921 12.4389 17.5767 12.3668 17.5468C12.2947 17.517 12.2292 17.4732 12.174 17.418C12.1188 17.3629 12.0751 17.2974 12.0452 17.2253C12.0154 17.1532 12 17.0759 12 16.9979C12 16.9199 12.0154 16.8426 12.0452 16.7705C12.0751 16.6985 12.1188 16.633 12.174 16.5778C12.2292 16.5226 12.2947 16.4789 12.3668 16.449C12.4389 16.4191 12.5161 16.4038 12.5941 16.4038H15.0549C15.1329 16.4038 15.2102 16.4191 15.2822 16.449C15.3543 16.4789 15.4198 16.5226 15.475 16.5778C15.5302 16.633 15.5739 16.6985 15.6038 16.7705C15.6336 16.8426 15.649 16.9199 15.649 16.9979C15.649 17.0759 15.6336 17.1532 15.6038 17.2253C15.5739 17.2974 15.5302 17.3629 15.475 17.418C15.4198 17.4732 15.3543 17.517 15.2822 17.5468C15.2102 17.5767 15.1329 17.5921 15.0549 17.5921H12.5941ZM26.4911 12.5064C26.4356 12.4514 26.3916 12.386 26.3616 12.3139C26.3316 12.2418 26.3161 12.1645 26.3161 12.0865C26.3161 12.0084 26.3316 11.9311 26.3616 11.859C26.3916 11.7869 26.4356 11.7215 26.4911 11.6665L28.2302 9.92738C28.2848 9.86987 28.3504 9.82388 28.423 9.79212C28.4957 9.76036 28.574 9.74347 28.6533 9.74245C28.7326 9.74143 28.8113 9.7563 28.8848 9.78617C28.9583 9.81605 29.025 9.86034 29.0811 9.91642C29.1372 9.9725 29.1814 10.0392 29.2113 10.1127C29.2412 10.1862 29.2561 10.2649 29.2551 10.3442C29.254 10.4235 29.2371 10.5018 29.2054 10.5745C29.1736 10.6471 29.1276 10.7127 29.0701 10.7673L27.331 12.5064C27.276 12.5619 27.2106 12.6059 27.1385 12.6359C27.0664 12.6659 26.9891 12.6814 26.911 12.6814C26.833 12.6814 26.7556 12.6659 26.6836 12.6359C26.6115 12.6059 26.5461 12.5619 26.4911 12.5064ZM16.6681 12.5064L14.9307 10.769C14.8732 10.7144 14.8272 10.6488 14.7955 10.5761C14.7637 10.5035 14.7468 10.4252 14.7458 10.3459C14.7448 10.2666 14.7596 10.1878 14.7895 10.1144C14.8194 10.0409 14.8637 9.97417 14.9198 9.91809C14.9758 9.86201 15.0426 9.81772 15.116 9.78784C15.1895 9.75796 15.2682 9.7431 15.3475 9.74412C15.4268 9.74514 15.5051 9.76203 15.5778 9.79379C15.6505 9.82555 15.7161 9.87154 15.7707 9.92904L17.5098 11.6681C17.5673 11.7228 17.6133 11.7883 17.645 11.861C17.6768 11.9337 17.6937 12.012 17.6947 12.0913C17.6957 12.1706 17.6809 12.2493 17.651 12.3228C17.6211 12.3962 17.5768 12.463 17.5207 12.5191C17.4646 12.5751 17.3979 12.6194 17.3244 12.6493C17.251 12.6792 17.1723 12.694 17.093 12.693C17.0137 12.692 16.9354 12.6751 16.8627 12.6434C16.79 12.6116 16.7244 12.5656 16.6698 12.5081L16.6681 12.5064ZM21.4054 10.0532V7.59414C21.4054 7.43657 21.468 7.28544 21.5795 7.17402C21.6909 7.0626 21.842 7 21.9996 7C22.1572 7 22.3083 7.0626 22.4197 7.17402C22.5311 7.28544 22.5937 7.43657 22.5937 7.59414V10.054C22.5937 10.2116 22.5311 10.3627 22.4197 10.4742C22.3083 10.5856 22.1572 10.6482 21.9996 10.6482C21.842 10.6482 21.6909 10.5856 21.5795 10.4742C21.468 10.3627 21.4054 10.2108 21.4054 10.0532Z" fill="#3C6E71"/>
</svg>
